<svg width="36" height="36" viewBox="0 0 36 36" fill="none" xmlns="http://www.w3.org/2000/svg">
<path d="M0.0126953 25.208C2.12398 27.0327 4.24752 28.8504 6.38574 30.6582C8.09516 32.0935 10.4649 34.0555 12.833 36H11.9521C2.5093 36 0.185811 34.0578 0.0126953 25.208ZM24.0479 0C33.8903 0 36 2.10975 36 11.9521V24.0479C36 33.8902 33.8902 36 24.0479 36H18.9092C17.7714 35.0309 16.6247 34.0696 16.1113 33.6475C15.0996 32.8155 14.0983 31.9318 13.1084 30.9971C12.9127 30.8122 12.7983 30.6326 12.7656 30.458C12.7439 30.2732 12.8144 30.1033 12.9775 29.9492C13.0753 29.8569 13.2062 29.7857 13.3691 29.7344C13.5214 29.6727 13.7615 29.662 14.0879 29.7031C17.0793 29.9804 19.5651 30.1912 21.5449 30.335C23.5245 30.4787 25.1397 30.5347 26.3906 30.5039C27.6308 30.4628 28.6321 30.309 29.3936 30.042C30.155 29.7749 30.8182 29.3739 31.3838 28.8398C32.428 27.8538 32.9674 26.6474 33 25.2197C33.0218 23.7818 32.3089 22.3797 30.8623 21.0137C30.3293 20.5104 29.7633 20.1298 29.165 19.873C28.5776 19.606 27.8754 19.4984 27.0596 19.5498C26.2329 19.5909 25.2208 19.8275 24.0244 20.2588C22.8388 20.6799 21.3922 21.3273 19.6846 22.2002C17.9658 23.063 15.9041 24.1876 13.5 25.5742C12.9997 25.8617 12.5918 25.8769 12.2764 25.6201C11.961 25.3429 11.8028 24.8963 11.8027 24.2803C11.7483 21.394 11.7379 18.5687 11.7705 15.8057C11.7825 14.7796 11.784 13.7493 11.7812 12.7148C11.908 12.6971 12.0352 12.6815 12.1621 12.6631C13.5759 12.4577 14.5222 12.1392 15.001 11.708C15.4796 11.2561 15.632 10.7012 15.458 10.0439C15.3166 9.49956 14.9412 9.15552 14.332 9.01172C13.7229 8.84742 12.9234 8.8216 11.9336 8.93457C11.8688 8.94137 11.8041 8.94892 11.7393 8.95605C11.7288 8.42623 11.7193 7.89526 11.7051 7.36328C11.6833 6.74711 11.6071 6.19218 11.4766 5.69922C11.3569 5.19609 11.1452 4.80027 10.8408 4.5127C10.6015 4.28673 10.3128 4.13733 9.97559 4.06543C9.62749 3.98327 9.28448 3.97888 8.94727 4.05078C8.59938 4.11243 8.30562 4.25563 8.06641 4.48145C7.76191 4.76896 7.54462 5.17999 7.41406 5.71387C7.29441 6.23769 7.24485 6.89032 7.2666 7.6709C7.28958 8.32892 7.31652 8.98816 7.34668 9.64844C7.11337 9.69579 6.8798 9.7452 6.64648 9.79688C5.76564 9.97144 5.0698 10.1876 4.55859 10.4443C4.03644 10.6908 3.77441 11.1123 3.77441 11.708C3.79627 12.3035 4.10123 12.7145 4.68848 12.9404C5.28676 13.1561 6.0919 13.2379 7.10352 13.1865C7.24981 13.1759 7.39602 13.1643 7.54199 13.1533C7.60614 14.1478 7.67658 15.145 7.75684 16.1445C7.77193 16.3233 7.78417 16.5027 7.79883 16.6816C6.02638 16.5825 4.77212 16.6082 4.03613 16.7607C3.14411 16.9456 2.66488 17.3982 2.59961 18.1172C2.53446 18.8565 2.94811 19.3599 3.83984 19.627C4.60209 19.8552 6.00003 19.9237 8.0332 19.8369C8.14243 21.4621 8.23739 23.0971 8.31152 24.7422C8.34411 25.3274 8.20772 25.6814 7.90332 25.8047C7.59883 25.9074 7.26705 25.8103 6.9082 25.5127C5.63544 24.4547 4.39499 23.355 3.1875 22.2148C2.14214 21.2099 1.07857 20.2459 0 19.3193V11.9521C0 2.10983 2.10996 3.60988e-05 11.9521 0H24.0479ZM21.9033 24.1104C22.382 24.0898 22.8116 24.2596 23.1924 24.6191C23.5949 24.9992 23.8178 25.4357 23.8613 25.9287C23.8939 26.4113 23.6824 26.8685 23.2256 27.2998C22.8884 27.6182 22.453 27.7827 21.9199 27.793C21.3978 27.793 20.9404 27.608 20.5488 27.2383C20.1681 26.8788 19.989 26.452 20.0107 25.959C20.0326 25.4455 20.2774 24.968 20.7451 24.5264C21.0388 24.2491 21.4248 24.1104 21.9033 24.1104ZM27.2725 22.6777C27.8161 22.6573 28.3272 22.8726 28.8057 23.3242C29.4256 23.9096 29.7305 24.4645 29.7197 24.9883C29.698 25.5019 29.3931 26.0362 28.8057 26.5908C28.3162 27.0529 27.7997 27.2734 27.2559 27.2529C26.7228 27.2221 26.195 26.9608 25.6729 26.4678C25.1181 25.944 24.8513 25.4354 24.873 24.9424C24.8948 24.4289 25.216 23.8793 25.8359 23.2939C26.2602 22.8934 26.7394 22.688 27.2725 22.6777ZM16.7471 15.1738C16.0728 15.2355 15.4256 15.5593 14.8057 16.1445C14.3814 16.5451 14.1585 17.0643 14.1367 17.7012C14.1259 18.3277 14.447 18.9492 15.0996 19.5654C15.5673 20.0069 16.1382 20.248 16.8125 20.2891C17.487 20.3096 18.1234 20.0376 18.7217 19.4727C19.3089 18.9181 19.6024 18.3329 19.6025 17.7168C19.5917 17.0902 19.2544 16.4635 18.5908 15.8369C18.0469 15.3234 17.4324 15.1019 16.7471 15.1738Z" fill="#27272A"/>
</svg>
