<svg width="102" height="36" viewBox="0 0 102 36" fill="none" xmlns="http://www.w3.org/2000/svg">
<path d="M0.0126953 25.208C2.12398 27.0327 4.24752 28.8504 6.38574 30.6582C8.09516 32.0935 10.4649 34.0555 12.833 36H11.9521C2.5093 36 0.185811 34.0578 0.0126953 25.208ZM24.0479 0C33.8903 0 36 2.10975 36 11.9521V24.0479C36 33.8902 33.8902 36 24.0479 36H18.9092C17.7714 35.0309 16.6247 34.0696 16.1113 33.6475C15.0996 32.8155 14.0983 31.9318 13.1084 30.9971C12.9127 30.8122 12.7983 30.6326 12.7656 30.458C12.7439 30.2732 12.8144 30.1033 12.9775 29.9492C13.0753 29.8569 13.2062 29.7857 13.3691 29.7344C13.5214 29.6727 13.7615 29.662 14.0879 29.7031C17.0793 29.9804 19.5651 30.1912 21.5449 30.335C23.5245 30.4787 25.1397 30.5347 26.3906 30.5039C27.6308 30.4628 28.6321 30.309 29.3936 30.042C30.155 29.7749 30.8182 29.3739 31.3838 28.8398C32.428 27.8538 32.9674 26.6474 33 25.2197C33.0218 23.7818 32.3089 22.3797 30.8623 21.0137C30.3293 20.5104 29.7633 20.1298 29.165 19.873C28.5776 19.606 27.8754 19.4984 27.0596 19.5498C26.2329 19.5909 25.2208 19.8275 24.0244 20.2588C22.8388 20.6799 21.3922 21.3273 19.6846 22.2002C17.9658 23.063 15.9041 24.1876 13.5 25.5742C12.9997 25.8617 12.5918 25.8769 12.2764 25.6201C11.961 25.3429 11.8028 24.8963 11.8027 24.2803C11.7483 21.394 11.7379 18.5687 11.7705 15.8057C11.7825 14.7796 11.784 13.7493 11.7812 12.7148C11.908 12.6971 12.0352 12.6815 12.1621 12.6631C13.5759 12.4577 14.5222 12.1392 15.001 11.708C15.4796 11.2561 15.632 10.7012 15.458 10.0439C15.3166 9.49956 14.9412 9.15552 14.332 9.01172C13.7229 8.84742 12.9234 8.8216 11.9336 8.93457C11.8688 8.94137 11.8041 8.94892 11.7393 8.95605C11.7288 8.42623 11.7193 7.89526 11.7051 7.36328C11.6833 6.74711 11.6071 6.19218 11.4766 5.69922C11.3569 5.19609 11.1452 4.80027 10.8408 4.5127C10.6015 4.28673 10.3128 4.13733 9.97559 4.06543C9.62749 3.98327 9.28448 3.97888 8.94727 4.05078C8.59938 4.11243 8.30562 4.25563 8.06641 4.48145C7.76191 4.76896 7.54462 5.17999 7.41406 5.71387C7.29441 6.23769 7.24485 6.89032 7.2666 7.6709C7.28958 8.32892 7.31652 8.98816 7.34668 9.64844C7.11337 9.69579 6.8798 9.7452 6.64648 9.79688C5.76564 9.97144 5.0698 10.1876 4.55859 10.4443C4.03644 10.6908 3.77441 11.1123 3.77441 11.708C3.79627 12.3035 4.10123 12.7145 4.68848 12.9404C5.28676 13.1561 6.0919 13.2379 7.10352 13.1865C7.24981 13.1759 7.39602 13.1643 7.54199 13.1533C7.60614 14.1478 7.67658 15.145 7.75684 16.1445C7.77193 16.3233 7.78417 16.5027 7.79883 16.6816C6.02638 16.5825 4.77212 16.6082 4.03613 16.7607C3.14411 16.9456 2.66488 17.3982 2.59961 18.1172C2.53446 18.8565 2.94811 19.3599 3.83984 19.627C4.60209 19.8552 6.00003 19.9237 8.0332 19.8369C8.14243 21.4621 8.23739 23.0971 8.31152 24.7422C8.34411 25.3274 8.20772 25.6814 7.90332 25.8047C7.59883 25.9074 7.26705 25.8103 6.9082 25.5127C5.63544 24.4547 4.39499 23.355 3.1875 22.2148C2.14248 21.2102 1.07919 20.2466 0.000976562 19.3203V11.9521C0.000976562 2.10983 2.10996 3.60988e-05 11.9521 0H24.0479ZM21.9033 24.1104C22.382 24.0898 22.8116 24.2596 23.1924 24.6191C23.5949 24.9992 23.8178 25.4357 23.8613 25.9287C23.8939 26.4113 23.6824 26.8685 23.2256 27.2998C22.8884 27.6182 22.453 27.7827 21.9199 27.793C21.3978 27.793 20.9404 27.608 20.5488 27.2383C20.1681 26.8788 19.989 26.452 20.0107 25.959C20.0326 25.4455 20.2774 24.968 20.7451 24.5264C21.0388 24.2491 21.4248 24.1104 21.9033 24.1104ZM27.2725 22.6777C27.8161 22.6573 28.3272 22.8726 28.8057 23.3242C29.4256 23.9096 29.7305 24.4645 29.7197 24.9883C29.698 25.5019 29.3931 26.0362 28.8057 26.5908C28.3162 27.0529 27.7997 27.2734 27.2559 27.2529C26.7228 27.2221 26.195 26.9608 25.6729 26.4678C25.1181 25.944 24.8513 25.4354 24.873 24.9424C24.8948 24.4289 25.216 23.8793 25.8359 23.2939C26.2602 22.8934 26.7394 22.688 27.2725 22.6777ZM16.7471 15.1738C16.0728 15.2355 15.4256 15.5593 14.8057 16.1445C14.3814 16.5451 14.1585 17.0643 14.1367 17.7012C14.1259 18.3277 14.447 18.9492 15.0996 19.5654C15.5673 20.0069 16.1382 20.248 16.8125 20.2891C17.487 20.3096 18.1234 20.0376 18.7217 19.4727C19.3089 18.9181 19.6024 18.3329 19.6025 17.7168C19.5917 17.0902 19.2544 16.4635 18.5908 15.8369C18.0469 15.3234 17.4324 15.1019 16.7471 15.1738Z" fill="#27272A"/>
<g clip-path="url(#clip0_427_7)">
<path d="M46.88 14.944V11.504L50.272 6.64H52.992L46.88 14.944ZM44.768 18V6.64H47.04V18H44.768ZM50.56 18L47.616 12.72L49.152 11.264L53.056 18H50.56ZM57.1778 18.192C56.6551 18.192 56.1751 18.096 55.7378 17.904C55.3004 17.712 54.9538 17.4347 54.6978 17.072C54.4524 16.7093 54.3298 16.2773 54.3298 15.776C54.3298 15.0507 54.5591 14.4853 55.0178 14.08C55.4871 13.6747 56.1271 13.3867 56.9378 13.216L59.5138 12.656C59.5138 12.112 59.4018 11.696 59.1778 11.408C58.9644 11.12 58.6124 10.976 58.1218 10.976C57.6951 10.976 57.3644 11.0827 57.1298 11.296C56.8951 11.5093 56.7404 11.792 56.6658 12.144L54.4258 12.016C54.5858 11.1733 54.9858 10.5013 55.6258 10C56.2764 9.488 57.0978 9.232 58.0898 9.232C59.3271 9.232 60.2338 9.54667 60.8098 10.176C61.3964 10.7947 61.6898 11.664 61.6898 12.784V15.808C61.6898 16.0213 61.7271 16.1707 61.8018 16.256C61.8764 16.3307 61.9884 16.368 62.1378 16.368H62.4898V18C62.4258 18.0107 62.3191 18.0213 62.1698 18.032C62.0204 18.0533 61.8658 18.064 61.7058 18.064C61.2791 18.064 60.9164 17.9893 60.6178 17.84C60.3191 17.6907 60.0898 17.472 59.9298 17.184C59.7804 16.896 59.6951 16.5493 59.6738 16.144H59.9138C59.8604 16.528 59.7164 16.88 59.4818 17.2C59.2471 17.5093 58.9324 17.7547 58.5378 17.936C58.1431 18.1067 57.6898 18.192 57.1778 18.192ZM57.6258 16.56C58.0311 16.56 58.3724 16.4907 58.6498 16.352C58.9271 16.2027 59.1404 15.9893 59.2898 15.712C59.4391 15.424 59.5138 15.088 59.5138 14.704V14.192L57.6098 14.608C57.2258 14.6933 56.9538 14.816 56.7938 14.976C56.6338 15.136 56.5538 15.3653 56.5538 15.664C56.5538 15.9413 56.6444 16.16 56.8258 16.32C57.0071 16.48 57.2738 16.56 57.6258 16.56ZM64.3395 18V9.424H66.3235L66.3875 11.76L66.1635 11.664C66.2702 11.1093 66.4515 10.6507 66.7075 10.288C66.9742 9.92533 67.2995 9.65867 67.6835 9.488C68.0675 9.31733 68.4942 9.232 68.9635 9.232C69.5822 9.232 70.0835 9.37067 70.4675 9.648C70.8622 9.92533 71.1555 10.304 71.3475 10.784C71.5395 11.264 71.6355 11.8187 71.6355 12.448V18H69.4595V12.944C69.4595 12.2933 69.3475 11.8187 69.1235 11.52C68.9102 11.2213 68.5848 11.072 68.1475 11.072C67.8488 11.072 67.5768 11.1467 67.3315 11.296C67.0862 11.4453 66.8888 11.664 66.7395 11.952C66.5902 12.24 66.5155 12.6027 66.5155 13.04V18H64.3395ZM78.5253 18.192C77.9066 18.192 77.3839 18.048 76.9573 17.76C76.5306 17.472 76.2053 17.0987 75.9813 16.64L75.9173 18H73.8372V6.64H76.0133V10.64C76.2266 10.224 76.5466 9.888 76.9733 9.632C77.4106 9.36533 77.9279 9.232 78.5253 9.232C79.2079 9.232 79.8053 9.408 80.3173 9.76C80.8293 10.112 81.2239 10.624 81.5013 11.296C81.7893 11.9573 81.9333 12.7627 81.9333 13.712C81.9333 14.6613 81.7893 15.472 81.5013 16.144C81.2239 16.8053 80.8293 17.312 80.3173 17.664C79.8053 18.016 79.2079 18.192 78.5253 18.192ZM77.9013 16.272C78.4879 16.272 78.9306 16.0533 79.2293 15.616C79.5279 15.168 79.6773 14.5333 79.6773 13.712C79.6773 12.88 79.5279 12.2453 79.2293 11.808C78.9306 11.3707 78.4879 11.152 77.9013 11.152C77.5279 11.152 77.1973 11.248 76.9093 11.44C76.6213 11.632 76.3973 11.92 76.2373 12.304C76.0879 12.688 76.0133 13.1573 76.0133 13.712C76.0133 14.256 76.0879 14.72 76.2373 15.104C76.3973 15.488 76.6159 15.7813 76.8932 15.984C77.1813 16.176 77.5173 16.272 77.9013 16.272ZM85.959 18.192C85.4363 18.192 84.9563 18.096 84.519 17.904C84.0817 17.712 83.735 17.4347 83.479 17.072C83.2337 16.7093 83.111 16.2773 83.111 15.776C83.111 15.0507 83.3403 14.4853 83.799 14.08C84.2683 13.6747 84.9083 13.3867 85.719 13.216L88.295 12.656C88.295 12.112 88.183 11.696 87.959 11.408C87.7457 11.12 87.3937 10.976 86.903 10.976C86.4763 10.976 86.1457 11.0827 85.911 11.296C85.6763 11.5093 85.5217 11.792 85.447 12.144L83.207 12.016C83.367 11.1733 83.767 10.5013 84.407 10C85.0577 9.488 85.879 9.232 86.871 9.232C88.1083 9.232 89.015 9.54667 89.591 10.176C90.1777 10.7947 90.471 11.664 90.471 12.784V15.808C90.471 16.0213 90.5083 16.1707 90.583 16.256C90.6577 16.3307 90.7697 16.368 90.919 16.368H91.271V18C91.207 18.0107 91.1003 18.0213 90.951 18.032C90.8017 18.0533 90.647 18.064 90.487 18.064C90.0603 18.064 89.6977 17.9893 89.399 17.84C89.1003 17.6907 88.871 17.472 88.711 17.184C88.5617 16.896 88.4763 16.5493 88.455 16.144H88.695C88.6417 16.528 88.4977 16.88 88.263 17.2C88.0283 17.5093 87.7137 17.7547 87.319 17.936C86.9243 18.1067 86.471 18.192 85.959 18.192ZM86.407 16.56C86.8123 16.56 87.1537 16.4907 87.431 16.352C87.7083 16.2027 87.9217 15.9893 88.071 15.712C88.2203 15.424 88.295 15.088 88.295 14.704V14.192L86.391 14.608C86.007 14.6933 85.735 14.816 85.575 14.976C85.415 15.136 85.335 15.3653 85.335 15.664C85.335 15.9413 85.4257 16.16 85.607 16.32C85.7883 16.48 86.055 16.56 86.407 16.56ZM93.1208 18V9.424H95.1048L95.1688 11.76L94.9448 11.664C95.0514 11.1093 95.2328 10.6507 95.4888 10.288C95.7554 9.92533 96.0808 9.65867 96.4648 9.488C96.8488 9.31733 97.2754 9.232 97.7448 9.232C98.3634 9.232 98.8648 9.37067 99.2488 9.648C99.6434 9.92533 99.9368 10.304 100.129 10.784C100.321 11.264 100.417 11.8187 100.417 12.448V18H98.2408V12.944C98.2408 12.2933 98.1288 11.8187 97.9048 11.52C97.6914 11.2213 97.3661 11.072 96.9288 11.072C96.6301 11.072 96.3581 11.1467 96.1128 11.296C95.8674 11.4453 95.6701 11.664 95.5208 11.952C95.3714 12.24 95.2968 12.6027 95.2968 13.04V18H93.1208Z" fill="#27272A"/>
<path d="M47.33 31.12C46.9633 31.12 46.6367 31.04 46.35 30.88C46.0633 30.7133 45.8433 30.4867 45.69 30.2L45.66 31H44.9V23.9H45.74V26.44C45.8733 26.22 46.08 26.0233 46.36 25.85C46.64 25.67 46.9633 25.58 47.33 25.58C47.7967 25.58 48.2 25.6933 48.54 25.92C48.88 26.1467 49.14 26.4667 49.32 26.88C49.5067 27.2933 49.6 27.7833 49.6 28.35C49.6 28.9167 49.5067 29.4067 49.32 29.82C49.14 30.2333 48.88 30.5533 48.54 30.78C48.2 31.0067 47.7967 31.12 47.33 31.12ZM47.28 30.32C47.7267 30.32 48.0767 30.1433 48.33 29.79C48.59 29.4367 48.72 28.9567 48.72 28.35C48.72 27.7367 48.59 27.2567 48.33 26.91C48.0767 26.5567 47.7333 26.38 47.3 26.38C46.9733 26.38 46.6933 26.46 46.46 26.62C46.2267 26.7733 46.0467 26.9967 45.92 27.29C45.8 27.5833 45.74 27.9367 45.74 28.35C45.74 28.75 45.8 29.1 45.92 29.4C46.0467 29.6933 46.2233 29.92 46.45 30.08C46.6833 30.24 46.96 30.32 47.28 30.32ZM51.3761 32.5V31.76H51.9861C52.1728 31.76 52.3094 31.73 52.3961 31.67C52.4894 31.6167 52.5594 31.5267 52.6061 31.4L52.7961 30.9H52.5061L50.5361 25.7H51.4561L53.0661 30.12L54.5761 25.7H55.4961L53.3461 31.67C53.2461 31.9567 53.0961 32.1667 52.8961 32.3C52.6961 32.4333 52.4194 32.5 52.0661 32.5H51.3761ZM62.3883 31V25.7H63.1583L63.1883 26.88L63.0883 26.86C63.1483 26.4667 63.2749 26.1567 63.4683 25.93C63.6683 25.6967 63.9216 25.58 64.2283 25.58C64.5416 25.58 64.7816 25.6933 64.9483 25.92C65.1216 26.1467 65.2283 26.48 65.2683 26.92H65.1683C65.2283 26.5067 65.3616 26.18 65.5683 25.94C65.7816 25.7 66.0483 25.58 66.3683 25.58C66.7949 25.58 67.1049 25.7267 67.2983 26.02C67.4916 26.3133 67.5883 26.8 67.5883 27.48V31H66.7483V27.6C66.7483 27.1267 66.6983 26.7967 66.5983 26.61C66.4983 26.4167 66.3416 26.32 66.1283 26.32C65.9883 26.32 65.8649 26.3667 65.7583 26.46C65.6516 26.5467 65.5649 26.6867 65.4983 26.88C65.4383 27.0733 65.4083 27.32 65.4083 27.62V31H64.5683V27.6C64.5683 27.1467 64.5183 26.82 64.4183 26.62C64.3249 26.42 64.1683 26.32 63.9483 26.32C63.8083 26.32 63.6849 26.3667 63.5783 26.46C63.4716 26.5467 63.3849 26.6867 63.3183 26.88C63.2583 27.0733 63.2283 27.32 63.2283 27.62V31H62.3883ZM70.2844 31.12C69.951 31.12 69.651 31.06 69.3844 30.94C69.1177 30.82 68.9077 30.6533 68.7544 30.44C68.601 30.22 68.5244 29.9667 68.5244 29.68C68.5244 29.2267 68.6577 28.8767 68.9244 28.63C69.1977 28.3767 69.6244 28.1933 70.2044 28.08L71.9844 27.72C71.9844 27.2667 71.881 26.93 71.6744 26.71C71.4744 26.49 71.1844 26.38 70.8044 26.38C70.4377 26.38 70.151 26.4633 69.9444 26.63C69.7377 26.79 69.5944 27.0233 69.5144 27.33L68.6244 27.26C68.7244 26.76 68.961 26.3567 69.3344 26.05C69.7144 25.7367 70.2044 25.58 70.8044 25.58C71.4444 25.58 71.941 25.7733 72.2944 26.16C72.6477 26.54 72.8244 27.0667 72.8244 27.74V29.94C72.8244 30.06 72.851 30.1433 72.9044 30.19C72.9577 30.2367 73.0377 30.26 73.1444 30.26H73.4844V31C73.4444 31.0067 73.381 31.01 73.2944 31.01C73.2077 31.0167 73.1244 31.02 73.0444 31.02C72.8177 31.02 72.6244 30.9833 72.4644 30.91C72.311 30.8367 72.1944 30.72 72.1144 30.56C72.0344 30.3933 71.991 30.18 71.9844 29.92H72.1444C72.0977 30.1467 71.9844 30.3533 71.8044 30.54C71.631 30.72 71.411 30.8633 71.1444 30.97C70.8777 31.07 70.591 31.12 70.2844 31.12ZM70.3644 30.38C70.7244 30.38 71.0244 30.32 71.2644 30.2C71.5044 30.0733 71.6844 29.9 71.8044 29.68C71.9244 29.4533 71.9844 29.1933 71.9844 28.9V28.44L70.3644 28.76C70.0044 28.8267 69.7544 28.93 69.6144 29.07C69.4744 29.2033 69.4044 29.38 69.4044 29.6C69.4044 29.8467 69.4877 30.04 69.6544 30.18C69.8277 30.3133 70.0644 30.38 70.3644 30.38ZM75.2305 31L74.1805 25.7H75.1005L75.7905 30.12L76.5705 26.44H77.3905L78.1705 30.12L78.8605 25.7H79.7805L78.7405 31H77.6805L76.9805 27.66L76.2805 31H75.2305ZM82.8166 31V25.74H80.9566V25H81.9166C82.1699 25 82.3732 24.9633 82.5266 24.89C82.6866 24.8167 82.7999 24.7 82.8666 24.54C82.9399 24.38 82.9766 24.1667 82.9766 23.9H83.6766V31H82.8166ZM80.5766 31V30.16H85.3766V31H80.5766ZM88.2727 31.12C87.9393 31.12 87.6393 31.06 87.3727 30.94C87.106 30.82 86.896 30.6533 86.7427 30.44C86.5893 30.22 86.5127 29.9667 86.5127 29.68C86.5127 29.2267 86.646 28.8767 86.9127 28.63C87.186 28.3767 87.6127 28.1933 88.1927 28.08L89.9727 27.72C89.9727 27.2667 89.8693 26.93 89.6627 26.71C89.4627 26.49 89.1727 26.38 88.7927 26.38C88.426 26.38 88.1393 26.4633 87.9327 26.63C87.726 26.79 87.5827 27.0233 87.5027 27.33L86.6127 27.26C86.7127 26.76 86.9493 26.3567 87.3227 26.05C87.7027 25.7367 88.1927 25.58 88.7927 25.58C89.4327 25.58 89.9293 25.7733 90.2827 26.16C90.636 26.54 90.8127 27.0667 90.8127 27.74V29.94C90.8127 30.06 90.8393 30.1433 90.8927 30.19C90.946 30.2367 91.026 30.26 91.1327 30.26H91.4727V31C91.4327 31.0067 91.3693 31.01 91.2827 31.01C91.196 31.0167 91.1127 31.02 91.0327 31.02C90.806 31.02 90.6127 30.9833 90.4527 30.91C90.2993 30.8367 90.1827 30.72 90.1027 30.56C90.0227 30.3933 89.9793 30.18 89.9727 29.92H90.1327C90.086 30.1467 89.9727 30.3533 89.7927 30.54C89.6193 30.72 89.3993 30.8633 89.1327 30.97C88.866 31.07 88.5793 31.12 88.2727 31.12ZM88.3527 30.38C88.7127 30.38 89.0127 30.32 89.2527 30.2C89.4927 30.0733 89.6727 29.9 89.7927 29.68C89.9127 29.4533 89.9727 29.1933 89.9727 28.9V28.44L88.3527 28.76C87.9927 28.8267 87.7427 28.93 87.6027 29.07C87.4627 29.2033 87.3927 29.38 87.3927 29.6C87.3927 29.8467 87.476 30.04 87.6427 30.18C87.816 30.3133 88.0527 30.38 88.3527 30.38Z" fill="#27272A"/>
</g>
<defs>
<clipPath id="clip0_427_7">
<rect width="58" height="32" fill="white" transform="translate(44 2)"/>
</clipPath>
</defs>
</svg>
